<svg xmlns="http://www.w3.org/2000/svg" version="1.1" xmlns:xlink="http://www.w3.org/1999/xlink" xmlns:svgjs="http://svgjs.dev/svgjs" width="2000" height="2250" viewBox="0 0 2000 2250"><g transform="matrix(1,0,0,1,3.410605131648481e-13,0)"><svg viewBox="0 0 320 360" data-background-color="#ffffff" preserveAspectRatio="xMidYMid meet" height="2250" width="2000" xmlns="http://www.w3.org/2000/svg" xmlns:xlink="http://www.w3.org/1999/xlink"><g id="tight-bounds" transform="matrix(1,0,0,1,0,0)"><svg viewBox="0 0 320 360" height="360" width="320"><g><svg></svg></g><g><svg viewBox="0 0 320 360" height="360" width="320"><g><path xmlns="http://www.w3.org/2000/svg" d="M20.961 227.22l3.726 4.658-1.863-6.056c-0.466-2.795-3.726 0.466-1.863 1.398M25.153 224.425c1.397 2.329 2.795 4.658 2.795 6.987 0 3.261 2.795 4.658 5.123 5.589-3.261-3.726-5.124-13.974-7.918-12.576M204.017 26.929c7.918 0 15.371-0.932 23.756 0.931 20.495 5.124 37.729 15.371 49.374 29.811l32.606 52.169c1.397 13.042 4.192 27.482 3.726 43.319 3.261 0 2.795-4.658 6.521-5.59-3.726 9.316-5.59 20.961-6.521 34.469-2.329-7.453 0-18.632 0.466-24.687-3.261 5.124-5.124 1.397-5.124-0.932 0.466-3.726-1.397-3.261-2.795-4.658-5.124-4.658-8.384-9.782-12.11-17.7 2.329-6.055 2.795-14.905-4.658-19.563-2.329-1.397-5.124-3.726-6.521-7.453-1.863-5.124-5.124-11.179-4.193-19.097 0.466-2.329-6.987 5.124-11.179 1.863-18.166-12.576-36.332-27.016-58.224-39.127-11.645 0-20.029-4.192-24.221-9.316-3.726-4.658-0.932-10.713 4.658-11.179 3.261 0 6.987-0.932 9.782 0.932 0.466-1.863 2.329-4.192 4.657-4.192M157.904 16.215l0.932 0.466c4.658 0.932 6.987 7.453 12.11 5.124 0 3.261 0.466 6.521-0.466 8.85-1.397 3.726-5.59 3.726-8.85 3.726-31.208-1.863-49.374 11.179-68.471 22.358-5.124 3.261-10.713 5.59-14.906 9.782-20.029 18.632-41.921 35.866-47.045 70.335l-4.192 38.195c-0.466 4.192-5.124 8.384-4.192 13.508l3.26 22.824c-3.261-3.261-5.124 0.932-4.192 2.795 0.466 1.397 2.329 6.055 5.124 1.863 3.726 6.987 7.453 20.495 12.576 26.55 15.837 18.632 36.332 35.4 53.101 52.169 4.192-0.932 7.453-0.932 8.384-3.727 1.397 2.795-1.397 5.59-3.726 6.056 7.453 4.658 15.837 8.85 27.016 9.781 14.44 0.932 27.948 3.261 40.524 6.522 6.521-1.863 13.042-2.795 20.029-3.261 2.329 0 3.726-3.726 6.521-4.658l0.466-4.658c2.795 4.192 2.329-1.397 0.466-4.192 3.261 2.795 4.192 5.124 5.589 6.987 0-1.397 3.726-6.521 3.727-0.466l0.931-6.055c1.397-0.932 1.863 5.124 3.261 0.931 1.397-4.192 4.192-0.932 6.987-2.329-0.932 1.863-0.466 5.59 2.794 3.261l3.727-3.261c2.329 5.59 6.055 3.261 7.918 2.329 20.495-13.042 40.99-28.413 60.553-43.784l-0.466 6.055 2.329-7.453c2.329 2.329 4.192 0.466 5.124-0.931 2.795-4.658 6.521-9.316 12.577-13.508-7.453 20.029-16.303 35.866-27.482 48.908l-4.658 5.59c0 3.261-0.932 7.453-4.658 7.918-1.863 0.466-5.59-0.932-8.384 1.863-1.397 1.863 3.261 5.59-0.466 2.795-3.261-2.329-6.521 0-10.248 0.932-2.795 0.932 1.863 3.726 2.795 5.589 0.932 1.863 1.863 3.726 1.398 6.056l-5.124-5.59c-6.055 3.261-9.782 9.316-14.906 13.974-2.329 1.863-1.397 5.124-1.397 7.918-3.261 0-6.987-0.932-8.85 0.932-1.397 1.863-0.932 4.658-0.932 7.453-4.658-0.466-5.124-7.453-9.315-6.056-4.192 0.932-8.85 1.397-12.577 3.727 2.795 5.59-4.658 2.329-3.726 3.26-6.987-4.192-13.042-7.453-20.495-4.658-15.837-5.124-35.4-2.795-49.84-0.931 0-2.329 0.466-4.658-0.466-5.124-0.932 2.329-3.726 1.397-3.26 1.397-8.85-6.055-17.7-9.782-27.016-14.905-8.384 0.932-16.303-3.261-18.632-5.59-6.521-6.055-13.974-2.795-20.029-4.192-13.042-3.261-17.7-16.769-19.098-26.084-0.932-4.658-4.658-6.521-6.055-6.056-6.055-19.563-15.371-37.263-22.824-55.429-1.863-4.658-1.397-9.316-1.397-14.44 2.329 0.932 4.658 0.466 4.192-2.794-2.329-15.371-7.918-27.016-13.974-38.195 3.261-15.837 3.726-34.469 11.179-48.443 6.521-12.576 18.632-19.098 27.016-29.811 2.795-3.726 2.795-8.85 5.59-12.11 9.316-9.316 18.632-19.098 28.879-27.482 4.658-3.726 10.247 0 17.234-1.397 2.329-8.384 11.645-15.837 20.495-13.508 3.726 0.932 11.179-8.85 13.508-9.782 3.726-1.397 1.863 3.726 1.863 6.987 8.85-6.987 20.961-10.713 32.14-14.906" fill="#ffffff" fill-rule="nonzero" stroke="none" stroke-width="1" stroke-linecap="butt" stroke-linejoin="miter" stroke-miterlimit="10" stroke-dasharray="" stroke-dashoffset="0" font-family="none" font-weight="none" font-size="none" text-anchor="none" style="mix-blend-mode: normal" data-fill-palette-color="tertiary"></path></g><g transform="matrix(1,0,0,1,64,105.45882352941176)"><svg viewBox="0 0 192 149.08235294117648" height="149.08235294117648" width="192"><g><svg viewBox="0 0 192 149.08235294117648" height="149.08235294117648" width="192"><g><svg viewBox="0 0 192 149.08235294117648" height="149.08235294117648" width="192"><g><svg viewBox="0 0 192 149.08235294117648" height="149.08235294117648" width="192"><g id="textblocktransform"><svg viewBox="0 0 192 149.08235294117648" height="149.08235294117648" width="192" id="textblock"><g><svg viewBox="0 0 192 149.08235294117648" height="149.08235294117648" width="192"><g transform="matrix(1,0,0,1,0,0)"><svg width="192" viewBox="1.2999999523162842 -55.400001525878906 72.25 56.10000228881836" height="149.08235294117648" data-palette-color="#ff0000"><path d="M7.9 0.4Q7.15 0.4 6.83 0.15 6.5-0.1 6.5-0.9L6.5-0.9Q6.5-3.4 10.15-18L10.15-18Q11.3-22.75 12.25-26.95 13.2-31.15 13.2-32.2L13.2-32.2Q13.2-32.7 12.98-32.88 12.75-33.05 12.15-33.05L12.15-33.05Q11.55-33.05 8.75-32.75L8.75-32.75Q4.7-32.3 3.35-32.3L3.35-32.3Q2.25-32.3 1.78-32.55 1.3-32.8 1.3-33.5L1.3-33.5Q1.3-34.6 1.7-35.8L1.7-35.8Q2.9-35.05 3.8-34.88 4.7-34.7 6.5-34.7L6.5-34.7Q9.9-34.7 15.6-35.3L15.6-35.3Q20.4-35.8 22.1-35.8L22.1-35.8Q27.2-35.8 30.15-33.5 33.1-31.2 33.1-26.5L33.1-26.5Q33.1-23.3 31.65-20.6 30.2-17.9 27.18-16.28 24.15-14.65 19.65-14.65L19.65-14.65Q17.25-14.65 15.95-15.13 14.65-15.6 14.65-16.5L14.65-16.5Q14.65-17.05 15.05-17.35L15.05-17.35Q15.65-17.15 16.95-16.98 18.25-16.8 19.55-16.8L19.55-16.8Q22.7-16.8 25.15-18.03 27.6-19.25 28.93-21.43 30.25-23.6 30.25-26.4L30.25-26.4Q30.25-30.05 27.88-31.78 25.5-33.5 20.65-33.5L20.65-33.5Q18.2-33.5 17.13-33.08 16.05-32.65 15.75-31.7L15.75-31.7Q15.25-30.35 13.68-23.43 12.1-16.5 10.8-9.8 9.5-3.1 9.5-1.15L9.5-1.15Q9.5-0.4 9.7 0.2L9.7 0.2Q8.9 0.4 7.9 0.4L7.9 0.4ZM64.25-55.4Q68.15-55.4 70.85-53.03 73.55-50.65 73.55-45.85L73.55-45.85Q73.55-45.6 73.35-45.4L73.35-45.4Q71.85-48.9 69.37-50.4 66.9-51.9 63.45-51.9L63.45-51.9Q60.05-51.9 56.52-48.85 53-45.8 49.65-40.13 46.3-34.45 43.4-26.7L43.4-26.7Q41.95-22.85 40.85-18.28 39.75-13.7 38.1-6L38.1-6 37.65-3.95Q41.25-8.85 46.6-15.1 51.95-21.35 52.75-21.35L52.75-21.35Q54.4-21.35 55.4-20.35L55.4-20.35Q51.95-17.75 46.95-12.15L46.95-12.15Q47.8-8.85 48.62-6.7 49.45-4.55 50.8-3.03 52.15-1.5 54.15-1.5L54.15-1.5Q55.45-1.5 57.52-3.3 59.6-5.1 61.4-8 63.2-10.9 63.8-14.05L63.8-14.05Q64.25-14.05 64.55-13.48 64.85-12.9 64.85-11.95L64.85-11.95Q64.85-10.3 63-7.23 61.15-4.15 58.52-1.78 55.9 0.6 53.5 0.6L53.5 0.6Q50.45 0.6 48.62-1.98 46.8-4.55 45-9.9L45-9.9Q40.5-4.65 37.6-0.3L37.6-0.3Q36.95 0.7 36.7 0.7L36.7 0.7Q36.3 0.7 35.62 0.08 34.95-0.55 34.9-1L34.9-1Q34.85-2 35.9-7.03 36.95-12.05 38.47-17.9 40-23.75 41.25-27.3L41.25-27.3Q46.05-40.8 51.72-48.1 57.4-55.4 64.25-55.4L64.25-55.4Z" opacity="1" transform="matrix(1,0,0,1,0,0)" fill="#ffffff" class="wordmark-text-0" data-fill-palette-color="primary" id="text-0"></path></svg></g></svg></g></svg></g></svg></g><g></g></svg></g></svg></g></svg></g></svg></g><defs></defs></svg><rect width="320" height="360" fill="none" stroke="none" visibility="hidden"></rect></g></svg></g></svg>